<?xml version="1.0" ?><svg viewBox="0 0 100 100" xmlns="http://www.w3.org/2000/svg"><title/><g data-name="Layer 2" id="Layer_2"><path d="M89.67,41.52A9.8,9.8,0,0,0,85.46,36a7.56,7.56,0,0,0,1.68-5.48c-.32-2.21-1.88-4.11-4.65-5.67A10.64,10.64,0,0,0,78.37,17c-.57-.47-1.12-1-1.67-1.44-3.33-2.93-6.77-6-14-5.34A7.35,7.35,0,0,0,58.87,6c-2.28-.92-5-.4-8.21,1.54l-1.79-.16c-1-.71-5-3.24-8.69-2.13-2,.61-3.59,2.19-4.63,4.7a12.94,12.94,0,0,0-8.17,2.41c-3.07,2.25-5,5.89-5.87,10.83-2.45.91-10.33,5.41-9.9,25.57-.55,1.06-2.45,5.16-1.28,9.31a9.8,9.8,0,0,0,4.21,5.57,7.56,7.56,0,0,0-1.68,5.48c.32,2.21,1.88,4.11,4.65,5.67a10.64,10.64,0,0,0,4.11,7.81c.57.47,1.12,1,1.67,1.44,3.33,2.94,6.78,6,14,5.34a8.07,8.07,0,0,0,3.79,4c2.18,1,4.82.92,7.83-.34l1.54.11A14.4,14.4,0,0,0,56.94,95a7.74,7.74,0,0,0,7.51-5.36,12.92,12.92,0,0,0,8.17-2.41c3.07-2.25,5-5.89,5.87-10.83,2.45-.91,10.33-5.41,9.9-25.57C88.94,49.77,90.83,45.67,89.67,41.52ZM48.59,90.95l0,.09-.23.1c-2.54,1.1-4.69,1.26-6.38.47a5.9,5.9,0,0,1-2.73-3.41l2.3-3.51-1.68-1.1-2.31,3.53-.2.25c-6.51.63-9.39-1.9-12.71-4.83-.56-.49-1.13-1-1.71-1.48a8.89,8.89,0,0,1-3.33-5.6l.06,0a13.38,13.38,0,0,0,3.78.61,5.79,5.79,0,0,0,5.16-2.48l-1.68-1.1c-2,3-7.61.81-8.87.27-1.89-1.16-3-2.48-3.17-3.91-.36-2.48,1.9-4.7,1.92-4.72l1-.95-1.2-.66a8.27,8.27,0,0,1-4.29-5c-.86-3,.35-6.18.93-7.45l.14-.08c1.81-.87,5.32-2,6.53-1,1.69,1.49,4,3.34,5.69,3.67l.39-2c-.34-.07-1.7-.5-4.76-3.2-1.9-1.67-5.3-.72-7.36.1l-.23.1c-.15-18.62,7.27-22.19,8.74-22.71l.26.14c1.31.75,4.5,3.43,2.29,10.9,0,0-.94,3.17-3,4.1L22.67,42a7.84,7.84,0,0,0,3.6-3.94h0c5.93-2.15,12.41,3,12.47,3.08L40,39.62c-.28-.23-6.44-5.18-12.93-3.84h0c2-7.72-1.41-11-3.26-12.19l-.29-.19c.75-4.32,2.44-7.47,5-9.38a11,11,0,0,1,7.52-2l.83.13.28-.79c.8-2.29,2-3.7,3.58-4.17,3.2-1,7.1,2,7.14,2a2.74,2.74,0,0,1,.45.52,13,13,0,0,1,.11,12.72,4.08,4.08,0,0,1-.69.92,16.43,16.43,0,0,0-8.6-.22l0-.08c-1.18-2-4-2.64-5.79-2.64v2s2.75,0,3.87,1.39l0,0a11.59,11.59,0,0,0-4.42,3.74l1.63,1.18c3.9-5.38,10.17-4.25,12.55-3.57l0,.05c-.55,2-.68,5.25.91,10,2.81,8.42-.45,13.3-.59,13.49l-.12.23a15.14,15.14,0,0,0,2.13,13.3c3.28,4.71-.5,9.75-1.71,11.15l-.11.1c-.08,0-.41-.09-.93-.18-2.6-.56-7.41-2.11-8.51-4.75-.5-1.2-.18-2.56,1-4.15,2.15-3,1.75-4.94,1-6.06-1.3-2.05-4.42-2.51-6.93-2-3,.54-5.1,2.25-5.55,4.44l2,.4c.34-1.65,2.26-2.57,3.95-2.87,2.15-.39,4.2.09,4.87,1.15s-.3,2.88-1,3.82c-1.56,2.17-2,4.22-1.19,6.09a8.35,8.35,0,0,0,4,3.84c-3.26.45-6.67,1.93-8.1,5.86l1.89.68c2.06-5.68,10.37-5,12.72-4.56l.71.14S52.25,78.16,48.59,90.95ZM86.79,49.53c-1,.51-4.55,2.1-6.86.89-.84-.44-1-1.21-1.19-2.42s-.45-2.91-2.31-3.49l-.6,1.92c.58.18.72.56.92,1.88s.46,3,2.24,3.89a6.32,6.32,0,0,0,3,.68A11.85,11.85,0,0,0,86.2,52l.19-.07c.13,18.68-7.34,22.18-8.76,22.68-1.25-.69-4.78-3.43-2.53-11,0,0,.94-3.17,3-4.1l-.82-1.83a7.84,7.84,0,0,0-3.6,3.95c-5.92,2.13-12.42-3-12.48-3.09L60,60c.25.2,5.06,4.07,10.64,4.07a11.85,11.85,0,0,0,2.32-.23,13.7,13.7,0,0,0,0,7.91l0,0c-2.61,1-6.56,2-8.14.91l-1.15,1.64a5.65,5.65,0,0,0,3.26.85,20.42,20.42,0,0,0,6.87-1.58l.05,0a8.88,8.88,0,0,0,2.73,2.64c-.75,4.32-2.44,7.48-5,9.39a11,11,0,0,1-7,2L62,83.5l-1.74,1,2.41,4.18a6.34,6.34,0,0,1-3.61,4c-3.46,1.25-7.73-1.28-7.77-1.3l-.21-.12,0-.12c3.21-11.12-.22-14.84-1.7-16.63,2.36-2.83,5.07-8.39,1.61-13.35a13.16,13.16,0,0,1-1.93-11.35c.54-.85,3.24-5.6,1.32-13.26.51.13,1.12.26,1.7.34,2.54.79,5.6,2.17,6.44,4.21.5,1.2.18,2.56-1,4.15-2.14,3-1.75,4.94-1,6.06,1,1.58,3.07,2.21,5.12,2.21a10.13,10.13,0,0,0,1.81-.16c3-.54,5.1-2.25,5.55-4.44l-2-.4c-.34,1.65-2.26,2.57-3.95,2.87-2.15.39-4.2-.09-4.87-1.15s.3-2.88,1-3.82c1.56-2.17,2-4.22,1.19-6.09A7.78,7.78,0,0,0,57,36.81a9.38,9.38,0,0,0,7.47-6.2l-1.88-.71c-2,5.25-7,5.43-10.23,4.95a27.07,27.07,0,0,0-2.68-.64c-1.49-4.69-1.12-7.5-.56-9l.12-.25a17.58,17.58,0,0,0,2-3.83l0,0a11.64,11.64,0,0,0,8,3.51,12,12,0,0,0,7.57-3l-1.39-1.45c-.26.25-6.66,5.81-13.62-1.28a16.12,16.12,0,0,0-.59-9.11l-.09-.23.28-.17c2.71-1.72,5-2.24,6.67-1.56,2.24.89,3,3.64,3,3.66l.21.86.88-.1C69,11.48,72,14.07,75.38,17.07c.56.49,1.13,1,1.71,1.48A8.92,8.92,0,0,1,80.41,24c-2.58-.73-6.87-1.25-9,2l1.68,1.1c1.49-2.27,5.47-1.58,7.54-1l.37.15c2.5,1.29,3.89,2.79,4.13,4.46.36,2.48-1.9,4.7-1.92,4.72l-1,.95,1.2.66a8.27,8.27,0,0,1,4.29,5C88.59,45.1,87.37,48.27,86.79,49.53Z"/></g></svg>